HIERARCHY
ROOT root
{
	OFFSET 0.000000 0.000000 0.000000
	CHANNELS 6 Xposition Yposition Zposition Zrotation Yrotation Xrotation
	JOINT lhip
	{
		OFFSET 0.058581 -0.082280 -0.017664
		CHANNELS 3 Zrotation Yrotation Xrotation
		JOINT lknee
		{
			OFFSET 0.043451 -0.386469 0.008037
			CHANNELS 3 Zrotation Yrotation Xrotation
			JOINT lankle
			{
				OFFSET -0.014790 -0.426874 -0.037428
				CHANNELS 3 Zrotation Yrotation Xrotation
				JOINT ltoe
				{
					OFFSET 0.041054 -0.060286 0.122042
					CHANNELS 3 Zrotation Yrotation Xrotation
					End Site
					{
						OFFSET 0.000000 0.000000 0.000000
					}
				}
			}
		}
	}
	JOINT rhip
	{
		OFFSET -0.060310 -0.090513 -0.013543
		CHANNELS 3 Zrotation Yrotation Xrotation
		JOINT rknee
		{
			OFFSET -0.043257 -0.383688 -0.004843
			CHANNELS 3 Zrotation Yrotation Xrotation
			JOINT rankle
			{
				OFFSET 0.019056 -0.420046 -0.034562
				CHANNELS 3 Zrotation Yrotation Xrotation
				JOINT rtoe
				{
					OFFSET -0.034840 -0.062106 0.130323
					CHANNELS 3 Zrotation Yrotation Xrotation
					End Site
					{
						OFFSET 0.000000 0.000000 0.000000
					}
				}
			}
		}
	}
	JOINT lowerback
	{
		OFFSET 0.004439 0.124404 -0.038385
		CHANNELS 3 Zrotation Yrotation Xrotation
		JOINT upperback
		{
			OFFSET 0.004488 0.137956 0.026820
			CHANNELS 3 Zrotation Yrotation Xrotation
			JOINT chest
			{
				OFFSET -0.002265 0.056032 0.002855
				CHANNELS 3 Zrotation Yrotation Xrotation
				JOINT lowerneck
				{
					OFFSET -0.013390 0.211636 -0.033468
					CHANNELS 3 Zrotation Yrotation Xrotation
					JOINT upperneck
					{
						OFFSET 0.010113 0.088937 0.050410
						CHANNELS 3 Zrotation Yrotation Xrotation
						End Site
						{
							OFFSET 0.000000 0.000000 0.000000
						}
					}
				}
				JOINT lclavicle
				{
					OFFSET 0.071702 0.114000 -0.018898
					CHANNELS 3 Zrotation Yrotation Xrotation
					JOINT lshoulder
					{
						OFFSET 0.122921 0.045205 -0.019046
						CHANNELS 3 Zrotation Yrotation Xrotation
						JOINT lelbow
						{
							OFFSET 0.255332 -0.015649 -0.022946
							CHANNELS 3 Zrotation Yrotation Xrotation
							JOINT lwrist
							{
								OFFSET 0.265709 0.012698 -0.007375
								CHANNELS 3 Zrotation Yrotation Xrotation
								End Site
								{
									OFFSET 0.000000 0.000000 0.000000
								}
							}
						}
					}
				}
				JOINT rclavicle
				{
					OFFSET -0.082954 0.112472 -0.023707
					CHANNELS 3 Zrotation Yrotation Xrotation
					JOINT rshoulder
					{
						OFFSET -0.113228 0.046853 -0.008472
						CHANNELS 3 Zrotation Yrotation Xrotation
						JOINT relbow
						{
							OFFSET -0.260127 -0.014369 -0.031269
							CHANNELS 3 Zrotation Yrotation Xrotation
							JOINT rwrist
							{
								OFFSET -0.269108 0.006794 -0.006027
								CHANNELS 3 Zrotation Yrotation Xrotation
								End Site
								{
									OFFSET 0.000000 0.000000 0.000000
								}
							}
						}
					}
				}
			}
		}
	}
}
MOTION
Frames: 5
Frame Time: 0.033333
-0.077841 0.397893 0.991085 -137.851281 -0.809195 84.955671 -2.795764 7.297806 10.453081 -3.049429 -13.657335 13.183706 0.607263 6.473527 -14.645397 0.000000 -0.000000 0.000000 0.437421 0.424011 -24.500169 -3.353242 -3.289632 10.415038 4.560800 -11.781187 -2.533289 0.000000 -0.000000 0.000000 0.971344 -5.866415 13.658064 -4.321638 -1.127600 0.883547 -0.194894 -3.270232 -3.376383 -2.174209 -6.072034 -4.134368 5.829631 5.021364 -4.780690 -31.576987 -7.464162 8.460176 -44.287404 -6.199620 4.312221 18.045438 -42.615370 -7.746514 2.404014 -9.179959 -2.145323 24.988364 10.873932 8.461243 52.361798 4.269714 11.104412 -1.729677 21.314250 5.354102 -0.286858 6.369642 14.247889 
-0.096242 0.426241 0.988211 -136.068503 -1.102877 85.661108 -1.687181 8.483413 11.254557 -3.364334 -14.690362 14.942689 -0.301981 4.625870 -14.601901 0.000000 -0.000000 0.000000 -0.275719 -1.154222 -25.062638 -2.754438 -2.682276 8.093550 4.859851 -10.236309 -2.350776 0.000000 -0.000000 0.000000 1.030600 -5.948515 12.016615 -4.342595 -1.614039 1.689684 -0.330360 -3.690665 -3.764912 -2.215059 -6.395602 -3.324196 5.971316 4.813176 -4.943810 -32.037995 -7.328121 8.884433 -44.369650 -6.895974 4.140515 18.575893 -43.709845 -7.507358 1.483222 -9.459677 -1.595829 25.336231 9.830911 8.404097 52.067267 3.368695 10.491596 -1.185561 21.515423 6.220171 1.019192 5.693890 14.240779 
-0.114986 0.457111 0.985983 -134.878454 -0.802258 85.915537 -0.177632 8.530181 12.671429 -3.585130 -15.252736 16.725009 -1.193842 4.108259 -13.997474 0.000000 -0.000000 0.000000 -0.365614 -0.577316 -25.138270 -2.983931 -2.772775 10.625955 4.598142 -10.432212 -2.298833 0.000000 -0.000000 0.000000 1.272503 -6.520115 10.800457 -4.103615 -1.539404 2.423846 -0.345741 -3.822137 -4.339722 -2.406012 -7.019440 -2.613282 5.826183 5.183353 -4.884357 -32.793915 -6.846511 9.027135 -44.648020 -6.930821 4.166338 18.942177 -44.472895 -8.071022 1.711872 -9.364910 -1.550420 25.532326 9.319824 8.580079 51.780388 2.444642 10.378811 -0.494116 21.361862 6.372324 1.153636 6.042873 14.343966 
-0.134850 0.490232 0.984893 -134.065451 -0.357282 85.810462 1.270723 8.262626 14.044712 -3.540804 -15.242784 19.407548 -2.577864 3.952362 -12.194570 0.000000 -0.000000 0.000000 -0.135957 0.178787 -24.410213 -3.547764 -5.703840 14.335742 3.919476 -12.252366 0.453891 0.000000 -0.000000 0.000000 1.459456 -7.268995 9.849171 -3.860965 -1.243794 2.983437 -0.421352 -3.753768 -4.763756 -2.367437 -7.446889 -2.418368 5.504478 5.514824 -4.284077 -33.285862 -5.756897 9.014375 -45.143970 -6.632576 4.087595 19.215631 -44.817746 -8.208259 0.569116 -9.406205 -0.964729 25.910447 8.649660 8.352011 51.500302 1.695116 10.654976 0.017560 20.721791 6.759314 1.697048 6.073660 14.909919 
-0.153582 0.523919 0.986365 -133.847830 0.363343 86.289590 2.794988 7.590200 12.906125 -3.834978 -12.871216 24.861688 -5.058002 3.854495 -7.435028 0.000000 -0.000000 0.000000 0.355485 1.299548 -24.365880 -2.842822 -6.000415 17.946395 2.771051 -12.438158 2.374144 0.000000 -0.000000 0.000000 1.816050 -7.753703 8.493507 -3.280020 -1.121680 3.167069 -0.626701 -3.569250 -4.913754 -2.107624 -7.117548 -3.021315 4.879940 5.501746 -2.803278 -33.883054 -4.663237 8.729115 -45.628357 -5.602839 4.136939 19.818712 -44.039799 -8.323512 -1.760900 -9.810874 -0.097851 26.591596 8.094734 8.322036 51.068646 1.828988 10.915858 0.290479 19.072271 7.343972 2.803469 5.649093 14.892221 
